# xmcd
#
# Track frame offsets:
#	150
#	7377
#	20185
#	36172
#	41887
#	52510
#	59177
#	73942
#	85122
#	103157
#	118960
#	134412
#	150507
#
# Disc length: 2234 seconds
#
# Revision: 1
# Processed by: cddbd v1.5.2PL0 Copyright (c) Steve Scherf et al.
# Submitted via: MusicWizard 7.2.0
#
DISCID=c108b80d
DTITLE=Various Artist - For The Boys
DYEAR=1991
DGENRE=Soundtrack
TTITLE0=Bette Midler - Billy-A-Dick (B.O. For The Boys)
TTITLE1=Bette Midler - Stuff Like That There (B.O. For The Boys)
TTITLE2=Bette Midler - P.S. I Love You (B.O. For The Boys)
TTITLE3=Bette Midler - The Girl Friend Of The Whirling Dervish (B.O. For The Boys)
TTITLE4=Bette Midler - I Remember You, Dixie's Dream (B.O. For The Boys)
TTITLE5=Bette Midler - Baby It's Cold Outside (B.O. For The Boys)
TTITLE6=Bette Midler - Dreamland (B.O. For The Boys)
TTITLE7=Bette Midler - Vickie And Mr Valves (B.O. For The Boys)
TTITLE8=Bette Midler - For All We Know (B.O. For The Boys)
TTITLE9=Bette Midler - Come Rain Or Come Shine (B.O. For The Boys)
TTITLE10=Bette Midler - In My Life (B.O. For The Boys)
TTITLE11=Bette Midler - I Remember You (B.O. For The Boys)
TTITLE12=Bette Midler - Every Road Leads Back To You (B.O. For The Boys)
EXTD=Corrected Artist Name and Track Spellings YEAR: 1991 ID3G:  13
EXTT0=
EXTT1=
EXTT2=
EXTT3=
EXTT4=
EXTT5=
EXTT6=
EXTT7=
EXTT8=
EXTT9=
EXTT10=
EXTT11=
EXTT12=
PLAYORDER=
